<svg xmlns="http://www.w3.org/2000/svg" width="33.901" height="40.498" viewBox="0 0 33.901 40.498">
  <path id="Change_Password" d="M9.208,40.533A9.218,9.218,0,0,1,0,31.325V22.632a9.223,9.223,0,0,1,6.186-8.7V10.687a10.767,10.767,0,0,1,21.521-.4l.008.443v3.2a9.223,9.223,0,0,1,6.186,8.7v8.694A9.218,9.218,0,0,1,24.7,40.531Zm-6.167-17.9v8.694a6.173,6.173,0,0,0,6.167,6.167H24.7a6.173,6.173,0,0,0,6.167-6.167V22.632A6.173,6.173,0,0,0,24.7,16.465H9.208A6.173,6.173,0,0,0,3.041,22.632Zm21.635-9.208V10.737a7.726,7.726,0,0,0-15.438-.432l-.011.4v2.728ZM15.445,29.437l-.013-.206v-4.5a1.52,1.52,0,0,1,3.027-.206l.013.206v4.5a1.52,1.52,0,0,1-3.027.206Z" transform="translate(0 -0.035)" fill="#636363"/>
</svg>
