<svg xmlns="http://www.w3.org/2000/svg" width="76.201" height="58.992" viewBox="0 0 76.201 58.992">
  <g id="Classroom" transform="translate(0 0)">
    <path id="education" d="M76.548,27.809,39.678,8.145a1.228,1.228,0,0,0-1.156,0L1.651,27.809a1.228,1.228,0,0,0,0,2.168l10.41,5.553V51.015h2.458V36.841l3.687,1.966v7.466a4.869,4.869,0,0,0-2.657,7.718,25.1,25.1,0,0,0-1.03,7.054v3.488a1.23,1.23,0,0,0,.68,1.1l1.358.68a6.44,6.44,0,0,0,5.757,0l1.358-.68a1.227,1.227,0,0,0,.68-1.1V61.046a25.1,25.1,0,0,0-1.03-7.054,4.869,4.869,0,0,0-2.657-7.718V40.119L38.52,49.642a1.237,1.237,0,0,0,1.158,0l24-12.8V50.408a39.806,39.806,0,0,1-23.844,7.981h-1.47a39.547,39.547,0,0,1-12.4-1.991L25.2,58.733a42,42,0,0,0,13.166,2.114h1.471a42.272,42.272,0,0,0,25.829-8.862,1.229,1.229,0,0,0,.474-.97V35.53l10.411-5.553a1.229,1.229,0,0,0,0-2.168ZM21.893,63.774l-.68.339a4.047,4.047,0,0,1-3.558,0l-.678-.339V61.046a22.647,22.647,0,0,1,.669-5.464,4.761,4.761,0,0,0,3.579,0,22.647,22.647,0,0,1,.669,5.464Zm0-12.759a2.458,2.458,0,1,1-2.458-2.458A2.458,2.458,0,0,1,21.893,51.015ZM39.1,47.163,21.51,37.782l15.226-8.12a6.244,6.244,0,0,0,2.363.46c2.757,0,4.916-1.62,4.916-3.687s-2.159-3.687-4.916-3.687-4.916,1.62-4.916,3.687a2.98,2.98,0,0,0,.458,1.558L18.9,36.39,4.843,28.89,39.1,10.621,73.357,28.893ZM36.641,26.435c0-.5.957-1.229,2.458-1.229s2.458.728,2.458,1.229S40.6,27.664,39.1,27.664,36.641,26.936,36.641,26.435Z" transform="translate(-1 -8)"/>
  </g>
</svg>
