<svg id="Language" xmlns="http://www.w3.org/2000/svg" width="37.948" height="37.948" viewBox="0 0 37.948 37.948">
  <path id="Path_1061" data-name="Path 1061" d="M18.974,0A18.974,18.974,0,1,0,37.948,18.974,18.974,18.974,0,0,0,18.974,0ZM32.417,9.26a35.7,35.7,0,0,1-6.3,1.877,26.833,26.833,0,0,0-4.368-8.515A16.618,16.618,0,0,1,32.417,9.26ZM24.35,24.151a39.555,39.555,0,0,0-10.745,0,24.639,24.639,0,0,1,0-10.327,39.618,39.618,0,0,0,5.379.41,39.582,39.582,0,0,0,5.376-.41,24.639,24.639,0,0,1-.01,10.327ZM23.736,11.5a37.138,37.138,0,0,1-9.516,0A24.467,24.467,0,0,1,18.974,3,24.461,24.461,0,0,1,23.736,11.5ZM16.208,2.622a26.827,26.827,0,0,0-4.365,8.514,35.737,35.737,0,0,1-6.3-1.876A16.607,16.607,0,0,1,16.208,2.622ZM2.372,18.974a16.5,16.5,0,0,1,1.891-7.662,38.18,38.18,0,0,0,6.99,2.147,27.017,27.017,0,0,0,0,11.061,37.926,37.926,0,0,0-6.991,2.136,16.539,16.539,0,0,1-1.89-7.681Zm3.17,9.72a35.738,35.738,0,0,1,6.3-1.871,26.833,26.833,0,0,0,4.368,8.515A16.607,16.607,0,0,1,5.542,28.7Zm8.681-2.244a37.119,37.119,0,0,1,9.514,0,24.5,24.5,0,0,1-4.763,8.51,24.461,24.461,0,0,1-4.751-8.505Zm7.523,8.882a26.833,26.833,0,0,0,4.368-8.515,35.964,35.964,0,0,1,6.3,1.877,16.618,16.618,0,0,1-10.671,6.643ZM26.7,24.508a26.964,26.964,0,0,0,0-11.058A38.019,38.019,0,0,0,33.693,11.3a16.5,16.5,0,0,1,0,15.341A38.261,38.261,0,0,0,26.7,24.514Z" transform="translate(0)" fill="#7b7b7b"/>
</svg>
