<svg xmlns="http://www.w3.org/2000/svg" width="62.439" height="49.405" viewBox="0 0 62.439 49.405">
  <g id="News" transform="translate(0 0.001)">
    <g id="Group_2" data-name="Group 2" transform="translate(13.001)">
      <g id="Group_1" data-name="Group 1">
        <path id="Path_1" data-name="Path 1" d="M40.1,47.2a1.33,1.33,0,0,1-.468-.086l-33.8-13A1.3,1.3,0,0,1,5,32.9V17.3a1.3,1.3,0,0,1,.832-1.214l33.8-13A1.3,1.3,0,0,1,41.4,4.3V45.9a1.3,1.3,0,0,1-1.3,1.3ZM7.6,32.008l31.2,12V6.194L7.6,18.2Z" transform="translate(-5 -3)"/>
      </g>
    </g>
    <g id="Group_4" data-name="Group 4" transform="translate(0 13.002)">
      <g id="Group_3" data-name="Group 3">
        <path id="Path_2" data-name="Path 2" d="M14.3,26.2H5.2A5.2,5.2,0,0,1,0,21V13.2A5.205,5.205,0,0,1,5.2,8h9.1a1.3,1.3,0,0,1,1.3,1.3V24.9a1.3,1.3,0,0,1-1.3,1.3ZM5.2,10.6a2.6,2.6,0,0,0-2.6,2.6V21a2.6,2.6,0,0,0,2.6,2.6H13v-13Z" transform="translate(0 -8)"/>
      </g>
    </g>
    <g id="Group_6" data-name="Group 6" transform="translate(7.8 28.605)">
      <g id="Group_5" data-name="Group 5">
        <path id="Path_3" data-name="Path 3" d="M14.7,34.8H6.9a1.3,1.3,0,0,1-1.287-1.118l-2.6-18.2a1.3,1.3,0,0,1,1.1-1.469,1.316,1.316,0,0,1,1.469,1.1L8.029,32.2h5.216L11.508,16.718a1.305,1.305,0,0,1,1.147-1.438,1.321,1.321,0,0,1,1.438,1.147l1.9,16.927A1.3,1.3,0,0,1,14.7,34.8Z" transform="translate(-3 -14.001)"/>
      </g>
    </g>
    <g id="Group_8" data-name="Group 8" transform="translate(52.002 7.802)">
      <g id="Group_7" data-name="Group 7">
        <path id="Path_4" data-name="Path 4" d="M21.3,13.8a1.3,1.3,0,0,1-.72-2.382l7.8-5.2a1.3,1.3,0,1,1,1.44,2.163l-7.8,5.2a1.286,1.286,0,0,1-.72.219Z" transform="translate(-20 -6)"/>
      </g>
    </g>
    <g id="Group_10" data-name="Group 10" transform="translate(52.003 31.204)">
      <g id="Group_9" data-name="Group 9">
        <path id="Path_5" data-name="Path 5" d="M29.1,22.8a1.286,1.286,0,0,1-.72-.218l-7.8-5.2a1.3,1.3,0,0,1,1.44-2.163l7.8,5.2A1.3,1.3,0,0,1,29.1,22.8Z" transform="translate(-20 -15.001)"/>
      </g>
    </g>
    <g id="Group_12" data-name="Group 12" transform="translate(52.002 22.102)">
      <g id="Group_11" data-name="Group 11">
        <path id="Path_6" data-name="Path 6" d="M29.1,14.1H21.3a1.3,1.3,0,1,1,0-2.6h7.8a1.3,1.3,0,1,1,0,2.6Z" transform="translate(-20 -11.5)"/>
      </g>
    </g>
  </g>
</svg>
