<svg xmlns="http://www.w3.org/2000/svg" width="33.747" height="39.7" viewBox="0 0 33.747 39.7">
  <path id="Notification" d="M15.968,39.646a6.932,6.932,0,0,1-4.624-2.59,1.4,1.4,0,0,1,.216-1.946,1.356,1.356,0,0,1,1.922.22,4.2,4.2,0,0,0,2.8,1.569,4.248,4.248,0,0,0,3.13-.884,3.793,3.793,0,0,0,.705-.689,1.359,1.359,0,0,1,1.924-.211,1.4,1.4,0,0,1,.209,1.947,6.53,6.53,0,0,1-1.184,1.158,6.931,6.931,0,0,1-5.1,1.431Zm-8-8.193A9.728,9.728,0,0,1,1.84,28.429,8.058,8.058,0,0,1,0,23.147v-.471A8.128,8.128,0,0,1,1.33,18.617l.127-.172a7.658,7.658,0,0,0,1.854-3.614l-.031.127V13.9L3.3,12.715c.018-.52.046-.989.084-1.434A11.871,11.871,0,0,1,7.81,3.229,14.153,14.153,0,0,1,16.8,0h.143a14.168,14.168,0,0,1,8.99,3.228,11.951,11.951,0,0,1,4.44,8.056c.034.393.05.753.055,1.285V13.9c0,.218,0,.413.009.611l.018.39.089.372a7.739,7.739,0,0,0,1.441,2.84l.3.351.127.157a8.022,8.022,0,0,1,1.335,4.118v.8A8.065,8.065,0,0,1,31.823,28.5a9.5,9.5,0,0,1-6.046,2.954,82.635,82.635,0,0,1-8.914.484,82.563,82.563,0,0,1-8.9-.484ZM3.547,20.247h0l-.154.255a5.327,5.327,0,0,0-.621,1.863l-.034.382v.429a5.273,5.273,0,0,0,1.146,3.405A6.932,6.932,0,0,0,8.246,28.7a80.284,80.284,0,0,0,8.618.466,80.458,80.458,0,0,0,8.648-.469,6.817,6.817,0,0,0,4.281-2.045,5.292,5.292,0,0,0,1.216-3.521V22.8a5.125,5.125,0,0,0-.863-2.626l.031.05-.274-.321a10.52,10.52,0,0,1-2.012-3.962l-.127-.549-.025-.183c-.022-.292-.032-.528-.037-.795v-1.8c0-.452-.017-.758-.043-1.086C27.2,6.7,22.392,2.768,16.951,2.768h-.143C11.363,2.768,6.569,6.7,6.12,11.524c-.022.241-.039.509-.057.838l-.031.927-.022,1.825-.025.281a10.442,10.442,0,0,1-2.419,4.831h0Z" transform="translate(0.001)" fill="#7b7b7b"/>
</svg>
