<svg xmlns="http://www.w3.org/2000/svg" width="40.4" height="40.395" viewBox="0 0 40.4 40.395">
  <path id="Appearance" d="M39.828,23.9a1.5,1.5,0,0,0-1.667-.12,15.645,15.645,0,0,1-7.868,2.165,15.848,15.848,0,0,1-15.83-15.825,15.5,15.5,0,0,1,2.174-7.858A1.495,1.495,0,0,0,14.929.073,20.9,20.9,0,0,0,4.243,7.331,20.231,20.231,0,0,0,0,19.8,20.629,20.629,0,0,0,20.61,40.409a20.247,20.247,0,0,0,12.467-4.242,20.884,20.884,0,0,0,7.265-10.68,1.5,1.5,0,0,0-.513-1.59ZM20.61,37.42A17.563,17.563,0,0,1,12.441,4.279a18.03,18.03,0,0,0-.968,5.839A18.846,18.846,0,0,0,30.292,28.936a18.082,18.082,0,0,0,5.847-.972A17.648,17.648,0,0,1,20.61,37.42Z" transform="translate(0 -0.014)" fill="#7b7b7b"/>
</svg>
