<svg xmlns="http://www.w3.org/2000/svg" width="33.194" height="31.53" viewBox="0 0 33.194 31.53">
  <g id="favourites" transform="translate(0.001)">
    <path id="Heart" d="M15.983,31.359l-.406-.245a57.672,57.672,0,0,1-9.965-7.755A20.477,20.477,0,0,1,.674,15.482a12.871,12.871,0,0,1,.333-9.124A10.452,10.452,0,0,1,7.442.523a10.892,10.892,0,0,1,8.712.9l.438.263.445-.264A10.907,10.907,0,0,1,25.3.391l.442.131a10.467,10.467,0,0,1,6.44,5.841,12.911,12.911,0,0,1,.333,9.145,20.732,20.732,0,0,1-4.939,7.861,57.708,57.708,0,0,1-9.95,7.741l-.381.237a1.219,1.219,0,0,1-1.265.01ZM8.185,2.832A8.076,8.076,0,0,0,3.192,7.42a10.418,10.418,0,0,0-.217,7.295,18.278,18.278,0,0,0,4.337,6.917,55.188,55.188,0,0,0,9.523,7.41l-.236-.149.775-.488A55.148,55.148,0,0,0,25,22.474l.877-.833a18.2,18.2,0,0,0,4.339-6.9A10.43,10.43,0,0,0,30,7.426a8.088,8.088,0,0,0-5-4.594,8.477,8.477,0,0,0-7.68,1.295,1.216,1.216,0,0,1-1.435.015l-.327-.234A8.462,8.462,0,0,0,8.185,2.832Zm16.357,8.952a3.288,3.288,0,0,0-2.261-2.863,1.213,1.213,0,1,1,.738-2.311,5.713,5.713,0,0,1,3.943,4.971,1.214,1.214,0,0,1-1.108,1.31c-.035,0-.07,0-.1,0A1.214,1.214,0,0,1,24.543,11.784Z" transform="translate(-0.001)" fill="#fff"/>
  </g>
</svg>
