<svg xmlns="http://www.w3.org/2000/svg" width="36.627" height="35.09" viewBox="0 0 36.627 35.09">
  <g id="followers" transform="translate(0 -2)">
    <path id="Path_126" data-name="Path 126" d="M23.15,77.555A7.386,7.386,0,1,0,11.2,72.57a5.885,5.885,0,0,0-6.865,9.452A7.25,7.25,0,0,0,0,88.655V95.5a2.284,2.284,0,0,0,2.281,2.281H26.55a2.647,2.647,0,0,0,2.644-2.644V86.16a9.163,9.163,0,0,0-6.044-8.605Zm-4.59-10.9A5.131,5.131,0,1,1,13.4,71.781,5.153,5.153,0,0,1,18.56,66.65ZM8.373,74.085a3.646,3.646,0,0,1,3.567,4.507,9.221,9.221,0,0,0-2.578,2.652,3.651,3.651,0,1,1-.989-7.159ZM2.236,95.5V88.655a5.009,5.009,0,0,1,5-5H8.275a9.122,9.122,0,0,0-.35,2.509v8.972a2.656,2.656,0,0,0,.032.408H2.281a.049.049,0,0,1-.045-.045Zm24.722-.363a.413.413,0,0,1-.408.408H10.57a.413.413,0,0,1-.408-.408V86.16a6.919,6.919,0,0,1,6.911-6.911h2.974a6.919,6.919,0,0,1,6.911,6.911Z" transform="translate(0 -60.686)" fill="#fff"/>
    <path id="Path_127" data-name="Path 127" d="M404.323,3.157h-2.055V1.118a1.118,1.118,0,0,0-2.236,0V3.157h-2.055a1.118,1.118,0,1,0,0,2.236h2.055V7.433a1.118,1.118,0,0,0,2.236,0V5.393h2.055a1.118,1.118,0,1,0,0-2.236Z" transform="translate(-368.814 2)" fill="#fff"/>
  </g>
</svg>
