<svg id="Menus" xmlns="http://www.w3.org/2000/svg" width="50.754" height="46.802" viewBox="0 0 50.754 46.802">
  <path id="Path_17" data-name="Path 17" d="M50.572,53.693H16.465c-1.406,0-2.545-1.746-2.545-3.9s1.139-3.9,2.545-3.9H50.571c1.406,0,2.545,1.746,2.545,3.9S51.978,53.693,50.572,53.693Z" transform="translate(-2.362 -6.891)"/>
  <path id="Path_18" data-name="Path 18" d="M50.572,34.862H16.465c-1.406,0-2.545-1.746-2.545-3.9s1.139-3.9,2.545-3.9H50.571c1.406,0,2.545,1.746,2.545,3.9S51.978,34.862,50.572,34.862Z" transform="translate(-2.362 -6.873)"/>
  <path id="Path_19" data-name="Path 19" d="M50.572,16.031H16.465c-1.406,0-2.545-1.746-2.545-3.9s1.139-3.9,2.545-3.9H50.571c1.406,0,2.545,1.746,2.545,3.9S51.978,16.031,50.572,16.031Z" transform="translate(-2.362 -7.075)"/>
  <circle id="Ellipse_1" data-name="Ellipse 1" cx="4.318" cy="4.318" r="4.318" transform="translate(0 0)"/>
  <circle id="Ellipse_2" data-name="Ellipse 2" cx="4.318" cy="4.318" r="4.318" transform="translate(0 18.489)"/>
  <circle id="Ellipse_3" data-name="Ellipse 3" cx="4.318" cy="4.318" r="4.318" transform="translate(0 37.172)"/>
</svg>
