<svg id="Results" xmlns="http://www.w3.org/2000/svg" width="46.529" height="57.2" viewBox="0 0 46.529 57.2">
  <g id="Group_57506" data-name="Group 57506">
    <g id="Group_57505" data-name="Group 57505">
      <path id="Path_1058" data-name="Path 1058" d="M92.579,11.844,82.086,1.351A4.556,4.556,0,0,0,78.833,0H51.993A4.6,4.6,0,0,0,47.4,4.593V52.609A4.6,4.6,0,0,0,51.993,57.2H89.336a4.6,4.6,0,0,0,4.593-4.593V15.086a4.6,4.6,0,0,0-1.35-3.242ZM81.658,5.426l6.834,6.822H81.658Zm9.085,47.183a1.41,1.41,0,0,1-1.419,1.407H51.993a1.408,1.408,0,0,1-1.407-1.407V4.593a1.408,1.408,0,0,1,1.407-1.407h26.5V13.847a1.586,1.586,0,0,0,1.587,1.587H90.744Z" transform="translate(-47.4)"/>
    </g>
  </g>
  <g id="Group_57508" data-name="Group 57508" transform="translate(9.434 22.302)">
    <g id="Group_57507" data-name="Group 57507">
      <path id="Path_1059" data-name="Path 1059" d="M140.938,198.1H137.7l-6.5,15.03h3.569l1.4-3.242h6.3l1.4,3.242h3.569Zm-3.5,8.838,1.891-4.368,1.869,4.368Z" transform="translate(-131.2 -198.1)"/>
    </g>
  </g>
  <g id="Group_57510" data-name="Group 57510" transform="translate(26.592 24.599)">
    <g id="Group_57509" data-name="Group 57509">
      <path id="Path_1060" data-name="Path 1060" d="M290.332,222.373V218.5H287.36v3.873H283.6v2.646h3.76v3.873h2.972v-3.873h3.76v-2.646Z" transform="translate(-283.6 -218.5)"/>
    </g>
  </g>
</svg>
